<?xml version="1.0" encoding="utf-8"?>
<!-- Generator: Adobe Illustrator 25.1.0, SVG Export Plug-In . SVG Version: 6.00 Build 0)  -->
<svg version="1.1" id="wh-oval-6013db2eefd01" xmlns="http://www.w3.org/2000/svg" xmlns:xlink="http://www.w3.org/1999/xlink"
	 x="0px" y="0px" viewBox="0 0 686 486" style="enable-background:new 0 0 686 486;" xml:space="preserve">
<style type="text/css">
	.st0{fill:#0A2458;}
	.st1{fill-rule:evenodd;clip-rule:evenodd;fill:#FFFFFF;}
	.st2{opacity:0.5;fill:#FFFFFF;enable-background:new    ;}
	.st3{fill:#FFFFFF;}
</style>
<g>
	<ellipse class="st0" cx="343" cy="243" rx="337.2" ry="237.4"/>
	<path class="st1" d="M343,459c174.6,0,316-96.8,316-216S517.6,27,343,27S27,123.8,27,243S168.4,459,343,459z M581.6,418
		C519.4,460.6,435,486,343,486s-176.4-25.4-238.6-68C42.2,375.6,0,314.2,0,243S42.2,110.4,104.4,68C166.6,25.4,251,0,343,0
		s176.4,25.4,238.6,68c62,42.4,104.4,103.8,104.4,175S643.6,375.6,581.6,418z"/>
</g>
<g>
	<g>
		<rect x="336.6" y="268.8" class="st2" width="5.4" height="17"/>
		<rect x="336.6" y="287.8" class="st2" width="5.4" height="17"/>
		<rect x="344" y="287.8" class="st2" width="5.4" height="17"/>
		<rect x="344" y="268.8" class="st2" width="5.4" height="16.8"/>
		<path class="st2" d="M425,185.4H261.2c-1.2,0-2.2,1-2.2,2.2v132c0,1.2,1,2.2,2.2,2.2h163.6c1.4,0,2.4-1,2.4-2.4v-132
			C427.2,186.4,426.2,185.4,425,185.4z M383.6,237.4c0-0.4,0.2-0.4,0.4-0.6c0.4-0.4,0.8-1.4,0.8-2.4V220c0-0.8-0.4-1.6-0.8-2.4
			c-0.2-0.2-0.4-0.4-0.4-0.6v-2.8c0-0.4,0.4-0.6,0.6-0.6h18.2c0.4,0,0.6,0.4,0.6,0.6v2.8c0,0.4-0.2,0.4-0.4,0.6
			c-0.4,0.6-0.8,1.4-0.8,2.4v14.2c0,0.8,0.4,1.6,0.8,2.4c0.2,0.2,0.4,0.4,0.4,0.6v6.4c0,0.4-0.4,0.6-0.6,0.6h-18.2
			c-0.4,0-0.6-0.4-0.6-0.6V237.4z M333.2,237.4c0-0.4,0.2-0.4,0.4-0.6c0.4-0.4,0.8-1.4,0.8-2.4v-14.2c0-0.8-0.4-1.6-0.8-2.4
			c-0.2-0.2-0.4-0.4-0.4-0.6v-2.8c0-0.4,0.4-0.6,0.6-0.6H352c0.4,0,0.6,0.4,0.6,0.6v2.8c0,0.4-0.2,0.4-0.4,0.6
			c-0.4,0.4-0.8,1.4-0.8,2.4v14.4c0,0.8,0.4,1.6,0.8,2.4c0.2,0.2,0.4,0.4,0.4,0.6v6.4c0,0.4-0.4,0.6-0.6,0.6h-18.2
			c-0.4,0-0.6-0.4-0.6-0.6V237.4z M283,237.4c0-0.4,0.2-0.4,0.4-0.6c0.4-0.4,0.8-1.4,0.8-2.4v-14.2c0-0.8-0.4-1.6-0.8-2.4
			c-0.2-0.2-0.4-0.4-0.4-0.6v-2.8c0-0.4,0.4-0.6,0.6-0.6h18.2c0.4,0,0.6,0.4,0.6,0.6v2.8c0,0.4-0.2,0.4-0.4,0.6
			c-0.4,0.4-0.8,1.4-0.8,2.4v14.4c0,0.8,0.4,1.6,0.8,2.4c0.2,0.2,0.4,0.4,0.4,0.6v6.4c0,0.4-0.4,0.6-0.6,0.6h-18.2
			c-0.4,0-0.6-0.4-0.6-0.6V237.4z M302.6,263.8c0,0.4-0.2,0.4-0.4,0.6c-0.4,0.4-0.8,1.4-0.8,2.4v17.4c0,0.8,0.4,1.6,0.8,2.4
			c0.2,0.2,0.4,0.4,0.4,0.6v6.4c0,0.4-0.4,0.6-0.6,0.6h-18.2c-0.4,0-0.6-0.4-0.6-0.6v-6.4c0-0.4,0.2-0.4,0.4-0.6
			c0.4-0.4,0.8-1.4,0.8-2.4v-17.4c0-0.8-0.4-1.6-0.8-2.4c-0.2-0.2-0.4-0.4-0.4-0.6V261c0-0.4,0.4-0.6,0.6-0.6H302
			c0.4,0,0.6,0.4,0.6,0.6V263.8z M303.6,255.8c-0.2,0.4-0.4,0.4-0.4,0.4h-20c-0.4,0-0.6-0.2-0.8-0.4c-0.2-0.4-0.2-0.8,0.2-1
			c3-2.4,6.6-3.8,10.4-3.8s7.4,1.4,10.4,3.8C303.6,255,303.8,255.4,303.6,255.8z M352.6,308.2c-6.4,0-12.8,0-19.2,0
			c-0.4,0-1-0.4-1-1c0-13.8,0-27.4,0-41.4c0.2-13.8,20.8-13.8,21,0c0,13.8,0,27.4,0.2,41.4C353.6,307.8,353,308.2,352.6,308.2z
			 M403,263.8c0,0.4-0.2,0.4-0.4,0.6c-0.4,0.4-0.8,1.4-0.8,2.4v17.4c0,0.8,0.4,1.6,0.8,2.4c0.2,0.2,0.4,0.4,0.4,0.6v6.4
			c0,0.4-0.4,0.6-0.6,0.6h-18.2c-0.4,0-0.6-0.4-0.6-0.6v-6.4c0-0.4,0.2-0.4,0.4-0.6c0.4-0.4,0.8-1.4,0.8-2.4v-17.4
			c0-0.8-0.4-1.6-0.8-2.4c-0.2-0.2-0.4-0.4-0.4-0.6V261c0-0.4,0.4-0.6,0.6-0.6h18.2c0.4,0,0.6,0.4,0.6,0.6V263.8z M404,255.8
			c-0.2,0.4-0.4,0.4-0.4,0.4h-20c-0.4,0-0.6-0.2-0.8-0.4c-0.2-0.4-0.2-0.8,0.2-1c3-2.4,6.6-3.8,10.4-3.8s7.4,1.4,10.4,3.8
			C404,255,404.2,255.4,404,255.8z"/>
	</g>
	<path class="st3" d="M385.2,144.6l4.8,2h40.6l1.6-2.2c0.4-0.4,0-0.8-0.4-0.8h-46.4C384.8,143.6,384.6,144.6,385.2,144.6z"/>
	<path class="st3" d="M444.4,158.2v6.2c0,0.4,0.4,0.8,0.6,0.8h14.4c0.4,0,0.6-0.4,0.8-0.8v-6.2l2.4-3.4c0.4-0.4,0-1.2-0.4-1.2h-20
		c-0.6,0-1,0.6-0.4,1.2L444.4,158.2z"/>
	<path class="st3" d="M430.2,332.8h-80h-14.6h-79.8c-0.4,0-1,0.4-1,1v7.4c0,0.4,0.4,1,1,1h80h14.6h80c0.4,0,1-0.4,1-1v-7.4
		C431.2,333.2,430.8,332.8,430.2,332.8z"/>
	<path class="st3" d="M394.6,148.6l35,13.6c0.4,0.2,0.8-0.2,0.8-0.4v-4.2c0-0.2,0-0.2-0.2-0.4l-0.6-1c0-0.2-0.2-0.2-0.2-0.4v-7.4
		L394.6,148.6L394.6,148.6z"/>
	<path class="st3" d="M255.4,146.6H296l4.8-2c0.4-0.2,0.4-1-0.2-1h-46.4c-0.4,0-0.6,0.4-0.4,0.8L255.4,146.6z"/>
	<path class="st3" d="M225.6,158.2v6.2c0,0.4,0.4,0.8,0.8,0.8h14.4c0.4,0,0.6-0.4,0.6-0.8v-6.2l2.4-3.4c0.4-0.4,0-1.2-0.4-1.2h-20
		c-0.6,0-1,0.6-0.4,1.2L225.6,158.2z"/>
	<path class="st3" d="M587.6,307H428.8c-0.4-1.4-1-2.6-1.4-4h-15.6c-0.4,0-0.8,0.4-1,0.8c-0.4,1.2-0.8,2.4-1.4,3.6
		c-0.4,1.2-1.2,2.4-2,3.4v6.4h-28.2v-6.4c-1.4-2.4-2.4-4.6-3.2-7.2c-0.2-0.4-0.4-0.8-1-0.8h-15c-0.4,0-0.8,0.4-1,0.8
		c-0.6,2.4-1.6,4.8-3.2,7.2v6.4h-10h-5.4h-10v-6.4c-1.4-2.2-2.4-4.6-3.2-7.2c-0.2-0.4-0.4-0.8-1-0.8h-15c-0.4,0-0.8,0.4-1,0.8
		c-0.6,2.4-1.8,4.8-3.2,7.2v6.4h-28.2v-6.4c-0.6-1.2-1.4-2.4-2-3.4c-0.4-1.2-1-2.4-1.4-3.6c-0.2-0.4-0.4-0.8-1-0.8h-15.6
		c-0.4,1.4-0.8,2.6-1.4,4h-159c-0.8,0-1.4,0.6-1.4,1.4V322c0,0.8,0.6,1.4,1.4,1.4h156.4v5.2c0,0.8,0.6,1.4,1.4,1.4h84.2h5.4H430
		c0.8,0,1.4-0.6,1.4-1.4v-5.2h156.4c0.8,0,1.4-0.6,1.4-1.4v-13.6C589,307.8,588.4,307,587.6,307z"/>
	<path class="st3" d="M256.4,156.6l-0.6,1c0,0.2-0.2,0.2-0.2,0.4v4.2c0,0.4,0.4,0.6,0.8,0.4l35-13.6h-34.8L256.4,156.6
		C256.6,156.4,256.6,156.4,256.4,156.6z"/>
	<path class="st3" d="M375,215.6c0-0.4,0-1,0-1.4c0-7.4,0-14.2,0-14.2c0.4-2.4,1-4.6,2-7h-19c1,2.2,1.6,4.4,2,7v38v7.6v53v0.2
		c0,0.8,0.6,1.4,1.4,1.4h12.4c0.8,0,1.4-0.6,1.4-1.4c0,0,0-52.2,0-80.8C375,217.2,375,216.4,375,215.6z"/>
	<path class="st3" d="M326.2,211.2c0.4-13.4,1-15.6,2-18H309c1,2.2,1.6,4.4,2,7c0,0,0,2.2,0,6c0,28.4,0,92.8,0,92.8
		c0,0.8,0.6,1.4,1.4,1.4h12.4c0.8,0,1.4-0.6,1.4-1.4v-0.2v-54v-6.6L326.2,211.2L326.2,211.2z"/>
	<path class="st3" d="M112.8,175.4c0-0.6,0.6-1.4,1.4-1.4h23.2c0.8,0,1.4,0.4,1.4,1.4v5.8c0,0.6-0.6,1.4-1.4,1.4h-23.2
		c-0.8,0-1.4-0.4-1.4-1.4C112.8,181.2,112.8,175.4,112.8,175.4z M150.4,175.4c0-0.6,0.6-1.4,1.4-1.4H175c0.8,0,1.4,0.4,1.4,1.4v5.8
		c0,0.6-0.6,1.4-1.4,1.4h-23.4c-0.8,0-1.4-0.4-1.4-1.4L150.4,175.4L150.4,175.4z M187.8,175.4c0-0.6,0.6-1.4,1.4-1.4h23.2
		c0.8,0,1.4,0.4,1.4,1.4v5.8c0,0.6-0.6,1.4-1.4,1.4h-23.2c-0.8,0-1.4-0.4-1.4-1.4V175.4z M225.2,175.4c0-0.6,0.6-1.4,1.4-1.4h27
		c0.8,0,1.4,0.4,1.4,1.4v3.8h175.6v-3.6c0-0.6,0.6-1.4,1.4-1.4h27c0.8,0,1.4,0.4,1.4,1.4v5.8c0,0.6-0.6,1.4-1.4,1.4H226.6
		c-0.8,0-1.4-0.4-1.4-1.4C225.2,181.4,225.2,175.4,225.2,175.4z M270,167.4l73-29.4l73,29.4h-12.2l-30.4-12.2L343,143l-30.4,12.2
		L282,167.4H270z M472.2,175.4c0-0.6,0.6-1.4,1.4-1.4h23.2c0.8,0,1.4,0.4,1.4,1.4v5.8c0,0.6-0.6,1.4-1.4,1.4h-23.2
		c-0.8,0-1.4-0.4-1.4-1.4V175.4z M509.6,175.4c0-0.6,0.6-1.4,1.4-1.4h23.2c0.8,0,1.4,0.4,1.4,1.4v5.8c0,0.6-0.6,1.4-1.4,1.4H511
		c-0.8,0-1.4-0.4-1.4-1.4V175.4z M547.2,175.4c0-0.6,0.6-1.4,1.4-1.4h23.2c0.8,0,1.4,0.4,1.4,1.4v5.8c0,0.6-0.6,1.4-1.4,1.4h-23.2
		c-0.8,0-1.4-0.4-1.4-1.4V175.4z M437,255.2l10.4-4.4c0.2,0,0.2,0,0.4,0s0.2,0,0.4,0l10.4,4.4c0.4,0.2,0.4,0.4,0.4,0.8
		c0,0.4-0.4,0.4-0.6,0.4h-21c-0.4,0-0.6-0.2-0.6-0.4C436.4,255.6,436.6,255.2,437,255.2z M438,237.4c0-0.2,0.2-0.4,0.4-0.6
		c0.4-0.6,0.8-1.4,0.8-2.4V220c0-1-0.4-1.8-0.8-2.4c-0.2-0.2-0.4-0.4-0.4-0.6v-2.8c0-0.4,0.4-0.6,0.6-0.6h18.2
		c0.4,0,0.6,0.4,0.6,0.6v2.8c0,0.2-0.2,0.4-0.4,0.6c-0.4,0.6-0.8,1.4-0.8,2.4v14.2c0,1,0.4,1.8,0.8,2.4c0.2,0.2,0.4,0.4,0.4,0.6v6.4
		c0,0.4-0.4,0.6-0.6,0.6h-18.2c-0.4,0-0.6-0.4-0.6-0.6V237.4z M474.6,254.8c0.4-0.4,0.6-0.4,1-0.8c2.8-2,6-3,9.4-3
		c3.8,0,7.4,1.4,10.4,3.8l0.2,0.2c0.2,0.2,0.2,0.4,0.2,0.6s-0.2,0.4-0.4,0.4c0,0,0,0-0.2,0c0,0,0,0-0.2,0h-0.2h-20
		c-0.2,0-0.4-0.2-0.4-0.2c-0.2-0.2-0.2-0.2-0.2-0.4C474.4,255.4,474.4,255,474.6,254.8z M475.4,237.4c0-0.2,0.2-0.4,0.4-0.6
		c0.4-0.6,0.8-1.4,0.8-2.4V220c0-1-0.4-1.8-0.8-2.4c-0.2-0.2-0.4-0.4-0.4-0.6v-2.8c0-0.4,0.4-0.6,0.6-0.6h18.2
		c0.4,0,0.6,0.4,0.6,0.6v2.8c0,0.2-0.2,0.4-0.4,0.6c-0.4,0.6-0.8,1.4-0.8,2.4v14.2c0,1,0.4,1.8,0.8,2.4c0.2,0.2,0.4,0.4,0.4,0.6v6.4
		c0,0.4-0.4,0.6-0.6,0.6H476c-0.4,0-0.6-0.4-0.6-0.6V237.4z M511.8,255.2l10.6-4.4c0.2,0,0.2,0,0.4,0h0.2c0,0,0,0,0.2,0l10.4,4.4
		c0.2,0,0.2,0.2,0.4,0.2c0.2,0.2,0.2,0.4,0.2,0.4c0,0.2-0.2,0.4-0.4,0.4s-0.2,0.2-0.4,0.2h-21c-0.2,0-0.4,0-0.4-0.2
		c-0.2,0-0.2-0.2-0.4-0.4v0.2C511.4,255.8,511.4,255.4,511.8,255.2z M513,237.4c0-0.2,0.2-0.4,0.4-0.6c0.4-0.6,0.8-1.4,0.8-2.4V220
		c0-1-0.4-1.8-0.8-2.4c-0.2-0.2-0.4-0.4-0.4-0.6v-2.8c0-0.4,0.4-0.6,0.6-0.6h18.2c0.4,0,0.6,0.4,0.6,0.6v2.8c0,0.2-0.2,0.4-0.4,0.6
		c-0.4,0.6-0.8,1.4-0.8,2.4v14.2c0,1,0.4,1.8,0.8,2.4c0.2,0.2,0.4,0.4,0.4,0.6v6.4c0,0.4-0.4,0.6-0.6,0.6h-18.2
		c-0.4,0-0.6-0.4-0.6-0.6V237.4z M549.6,254.8c0.4-0.4,0.6-0.4,1-0.8c2.8-2,6-3,9.4-3c3.8,0,7.4,1.4,10.4,3.8l0.2,0.2
		c0.2,0.2,0.2,0.4,0.2,0.6s-0.2,0.4-0.4,0.4c0,0,0,0-0.2,0c0,0,0,0-0.2,0l0,0h-20c-0.2,0-0.4-0.2-0.4-0.2c-0.2-0.2-0.2-0.2-0.2-0.4
		C549.2,255.4,549.4,255,549.6,254.8z M550.4,237.4c0-0.2,0.2-0.4,0.4-0.6c0.4-0.6,0.8-1.4,0.8-2.4V220c0-1-0.4-1.8-0.8-2.4
		c-0.2-0.2-0.4-0.4-0.4-0.6v-2.8c0-0.4,0.4-0.6,0.6-0.6h18.2c0.4,0,0.6,0.4,0.6,0.6v2.8c0,0.2-0.2,0.4-0.4,0.6
		c-0.4,0.6-0.8,1.4-0.8,2.4v14.2c0,1,0.4,1.8,0.8,2.4c0.2,0.2,0.4,0.4,0.4,0.6v6.4c0,0.4-0.4,0.6-0.6,0.6H551
		c-0.4,0-0.6-0.4-0.6-0.6V237.4z M569.8,263.8c0,0.2-0.2,0.4-0.4,0.6c-0.4,0.6-0.8,1.4-0.8,2.4v17.4c0,1,0.4,1.8,0.8,2.4
		c0.2,0.2,0.4,0.4,0.4,0.6v6.4c0,0.4-0.4,0.6-0.6,0.6H551c-0.4,0-0.6-0.4-0.6-0.6v-6.4c0-0.2,0.2-0.4,0.4-0.6
		c0.4-0.6,0.8-1.4,0.8-2.4v-17.4c0-1-0.4-1.8-0.8-2.4c-0.2-0.2-0.4-0.4-0.4-0.6V261c0-0.4,0.4-0.6,0.6-0.6h18.2
		c0.4,0,0.6,0.4,0.6,0.6V263.8z M532.4,263.8c0,0.2-0.2,0.4-0.4,0.6c-0.4,0.6-0.8,1.4-0.8,2.4v17.4c0,1,0.4,1.8,0.8,2.4
		c0.2,0.2,0.4,0.4,0.4,0.6v6.4c0,0.4-0.4,0.6-0.6,0.6h-18.2c-0.4,0-0.6-0.4-0.6-0.6v-6.4c0-0.2,0.2-0.4,0.4-0.6
		c0.4-0.6,0.8-1.4,0.8-2.4v-17.4c0-1-0.4-1.8-0.8-2.4c-0.2-0.2-0.4-0.4-0.4-0.6V261c0-0.4,0.4-0.6,0.6-0.6h18.2
		c0.4,0,0.6,0.4,0.6,0.6V263.8z M494.8,263.8c0,0.2-0.2,0.4-0.4,0.6c-0.4,0.6-0.8,1.4-0.8,2.4v17.4c0,1,0.4,1.8,0.8,2.4
		c0.2,0.2,0.4,0.4,0.4,0.6v6.4c0,0.4-0.4,0.6-0.6,0.6H476c-0.4,0-0.6-0.4-0.6-0.6v-6.4c0-0.2,0.2-0.4,0.4-0.6
		c0.4-0.6,0.8-1.4,0.8-2.4v-17.4c0-1-0.4-1.8-0.8-2.4c-0.2-0.2-0.4-0.4-0.4-0.6V261c0-0.4,0.4-0.6,0.6-0.6h18.2
		c0.4,0,0.6,0.4,0.6,0.6L494.8,263.8L494.8,263.8z M457.4,263.8c0,0.2-0.2,0.4-0.4,0.6c-0.4,0.6-0.8,1.4-0.8,2.4v17.4
		c0,1,0.4,1.8,0.8,2.4c0.2,0.2,0.4,0.4,0.4,0.6v6.4c0,0.4-0.4,0.6-0.6,0.6h-18.2c-0.4,0-0.6-0.4-0.6-0.6v-6.4c0-0.2,0.2-0.4,0.4-0.6
		c0.4-0.6,0.8-1.4,0.8-2.4v-17.4c0-1-0.4-1.8-0.8-2.4c-0.2-0.2-0.4-0.4-0.4-0.6V261c0-0.4,0.4-0.6,0.6-0.6h18.2
		c0.4,0,0.6,0.4,0.6,0.6V263.8z M248.8,256.6h-21c-0.4,0-0.6-0.2-0.6-0.4c0-0.4,0.2-0.6,0.4-0.8L238,251c0.2,0,0.2,0,0.4,0
		s0.2,0,0.4,0l10.4,4.4c0.4,0.2,0.4,0.4,0.4,0.8C249.4,256.4,249.2,256.6,248.8,256.6z M248,263.8c0,0.2-0.2,0.4-0.4,0.6
		c-0.4,0.6-0.8,1.4-0.8,2.4v17.4c0,1,0.4,1.8,0.8,2.4c0.2,0.2,0.4,0.4,0.4,0.6v6.4c0,0.4-0.4,0.6-0.6,0.6h-18.2
		c-0.4,0-0.6-0.4-0.6-0.6v-6.4c0-0.2,0.2-0.4,0.4-0.6c0.4-0.6,0.8-1.4,0.8-2.4v-17.4c0-1-0.4-1.8-0.8-2.4c-0.2-0.2-0.4-0.4-0.4-0.6
		V261c0-0.4,0.4-0.6,0.6-0.6h18.2c0.4,0,0.6,0.4,0.6,0.6V263.8z M211.6,255.8c0,0.2-0.2,0.2-0.2,0.4l-0.2,0.2
		c-0.2,0-0.2,0.2-0.4,0.2h-20c-0.2,0-0.2,0-0.4-0.2c-0.4-0.2-0.4-0.4-0.4-0.4s0-0.4,0-0.6c0,0,0-0.2,0.2-0.2c0,0,0-0.2,0.2-0.2
		c0.6-0.6,1.4-1.2,2.4-1.6c0,0,0.2,0,0.2-0.2c2.4-1.4,5.2-2.2,8-2.2c3.8,0,7.4,1.4,10.4,3.8C211.6,255,211.8,255.4,211.6,255.8z
		 M210.6,263.8c0,0.2-0.2,0.4-0.4,0.6c-0.4,0.6-0.8,1.4-0.8,2.4v17.4c0,1,0.4,1.8,0.8,2.4c0.2,0.2,0.4,0.4,0.4,0.6v6.4
		c0,0.4-0.4,0.6-0.6,0.6h-18.2c-0.4,0-0.6-0.4-0.6-0.6v-6.4c0-0.2,0.2-0.4,0.4-0.6c0.4-0.6,0.8-1.4,0.8-2.4v-17.4
		c0-1-0.4-1.8-0.8-2.4c-0.2-0.2-0.4-0.4-0.4-0.6V261c0-0.4,0.4-0.6,0.6-0.6H210c0.4,0,0.6,0.4,0.6,0.6V263.8z M174.2,256.4
		c-0.2,0-0.2,0.2-0.4,0.2h-21c-0.2,0-0.2,0-0.4,0s-0.4-0.2-0.4-0.4V256c0-0.4,0.2-0.6,0.4-0.8l10.4-4.4c0,0,0,0,0.2,0h0.2
		c0.2,0,0.2,0,0.4,0l10.4,4.4c0.4,0.2,0.4,0.4,0.4,0.8C174.4,256.2,174.4,256.4,174.2,256.4z M173.2,263.8c0,0.2-0.2,0.4-0.4,0.6
		c-0.4,0.6-0.8,1.4-0.8,2.4v17.4c0,1,0.4,1.8,0.8,2.4c0.2,0.2,0.4,0.4,0.4,0.6v6.4c0,0.4-0.4,0.6-0.6,0.6h-18.2
		c-0.4,0-0.6-0.4-0.6-0.6v-6.4c0-0.2,0.2-0.4,0.4-0.6c0.4-0.6,0.8-1.4,0.8-2.4v-17.4c0-1-0.4-1.8-0.8-2.4c-0.2-0.2-0.4-0.4-0.4-0.6
		V261c0-0.4,0.4-0.6,0.6-0.6h18.2c0.4,0,0.6,0.4,0.6,0.6V263.8z M136.8,255.8c0,0.2-0.2,0.4-0.4,0.4s-0.2,0.2-0.4,0.2h-20
		c0,0,0,0-0.2,0h-0.2c-0.2-0.2-0.4-0.4-0.4-0.4c-0.2-0.4,0-0.6,0.2-0.8c0,0,0,0,0.2-0.2c0.4-0.2,0.4-0.4,0.8-0.6
		c0.2-0.2,0.4-0.2,0.4-0.4c0.4-0.2,0.4-0.4,0.8-0.4c0.2-0.2,0.4-0.4,0.8-0.4c2.4-1.2,4.8-1.8,7.4-1.8c3.8,0,7.4,1.4,10.4,3.8
		C136.8,255,136.8,255.4,136.8,255.8z M135.6,263.8c0,0.2-0.2,0.4-0.4,0.6c-0.4,0.6-0.8,1.4-0.8,2.4v17.4c0,1,0.4,1.8,0.8,2.4
		c0.2,0.2,0.4,0.4,0.4,0.6v6.4c0,0.4-0.4,0.6-0.6,0.6h-18.2c-0.4,0-0.6-0.4-0.6-0.6v-6.4c0-0.2,0.2-0.4,0.4-0.6
		c0.4-0.6,0.8-1.4,0.8-2.4v-17.4c0-1-0.4-1.8-0.8-2.4c-0.2-0.2-0.4-0.4-0.4-0.6V261c0-0.4,0.4-0.6,0.6-0.6H135
		c0.4,0,0.6,0.4,0.6,0.6V263.8z M116.2,237.4c0-0.2,0.2-0.4,0.4-0.6c0.4-0.6,0.8-1.4,0.8-2.4v-14.2c0-1-0.4-1.8-0.8-2.4
		c-0.2-0.2-0.4-0.4-0.4-0.6v-3c0-0.4,0.4-0.6,0.6-0.6H135c0.4,0,0.6,0.4,0.6,0.6v2.8c0,0.2-0.2,0.4-0.4,0.6
		c-0.4,0.6-0.8,1.4-0.8,2.4v14.4c0,1,0.4,1.8,0.8,2.4c0.2,0.2,0.4,0.4,0.4,0.6v6.4c0,0.4-0.4,0.6-0.6,0.6h-18.2
		c-0.4,0-0.6-0.4-0.6-0.6L116.2,237.4L116.2,237.4z M153.6,237.4c0-0.2,0.2-0.4,0.4-0.6c0.4-0.6,0.8-1.4,0.8-2.4v-14.2
		c0-1-0.4-1.8-0.8-2.4c-0.2-0.2-0.4-0.4-0.4-0.6v-3c0-0.4,0.4-0.6,0.6-0.6h18.2c0.4,0,0.6,0.4,0.6,0.6v2.8c0,0.2-0.2,0.4-0.4,0.6
		c-0.4,0.6-0.8,1.4-0.8,2.4v14.4c0,1,0.4,1.8,0.8,2.4c0.2,0.2,0.4,0.4,0.4,0.6v6.4c0,0.4-0.4,0.6-0.6,0.6h-18.2
		c-0.4,0-0.6-0.4-0.6-0.6V237.4z M191.2,237.4c0-0.2,0.2-0.4,0.4-0.6c0.4-0.6,0.8-1.4,0.8-2.4v-14.2c0-1-0.4-1.8-0.8-2.4
		c-0.2-0.2-0.4-0.4-0.4-0.6v-3c0-0.4,0.4-0.6,0.6-0.6H210c0.4,0,0.6,0.4,0.6,0.6v2.8c0,0.2-0.2,0.4-0.4,0.6
		c-0.4,0.6-0.8,1.4-0.8,2.4v14.4c0,1,0.4,1.8,0.8,2.4c0.2,0.2,0.4,0.4,0.4,0.6v6.4c0,0.4-0.4,0.6-0.6,0.6h-18.2
		c-0.4,0-0.6-0.4-0.6-0.6V237.4z M228.6,237.4c0-0.2,0.2-0.4,0.4-0.6c0.4-0.6,0.8-1.4,0.8-2.4v-14.2c0-1-0.4-1.8-0.8-2.4
		c-0.2-0.2-0.4-0.4-0.4-0.6v-3c0-0.4,0.4-0.6,0.6-0.6h18.2c0.4,0,0.6,0.4,0.6,0.6v2.8c0,0.2-0.2,0.4-0.4,0.6
		c-0.4,0.6-0.8,1.4-0.8,2.4v14.4c0,1,0.4,1.8,0.8,2.4c0.2,0.2,0.4,0.4,0.4,0.6v6.4c0,0.4-0.4,0.6-0.6,0.6h-18.2
		c-0.4,0-0.6-0.4-0.6-0.6V237.4z M98.4,171.8h4.2c0,0,0.2,0,0.2,0.2v17c0,0.4,0.4,0.6,0.8,0.6h152.2c0.6,1.2,1.4,2.4,1.8,3.6
		c-9.6,0-159,0-159,0c-0.4,0-1,0.4-1,1v4.8c0,0.6,0.4,1,1,1h160.6c0,0,0,1.4,0,4.4h-156c-0.4,0-0.4,0.2-0.4,0.4v95.4
		c0.4,0,170.4,0,170.4,0c0.8,0,1.4-0.6,1.4-1.4v-0.2c0-0.8,0.2-97.8,0.2-97.8c0-0.6,0-0.8,0-0.8c0.2-1.8,0.6-3.6,1.2-5.4
		c0.6-1.8,1.4-3.4,2.4-5.2H338h10.4H408c1,1.6,1.8,3.4,2.4,5.2s1,3.4,1.2,5.4c0,0,0,0.4,0,0.8c0,0,0.2,97,0.2,97.8v0.2
		c0,0.8,0.6,1.4,1.4,1.4l166.2-0.2h0.4h3.2c0.4,0,0.4-0.2,0.4-0.4v-94.8c0-0.4-0.2-0.4-0.4-0.4H426.8c0-2.6,0-4.2,0-4.4h160.6
		c0.6,0,1-0.4,1-1v-4.8c0-0.4-0.4-1-1-1c0,0-149.4,0-159,0c0.4-1.2,1.2-2.4,1.8-3.6h152.4c0.4,0,0.8-0.2,0.8-0.6v-17
		c0,0,0-0.2,0.2-0.2h4.2c0.6,0,1-0.4,1-1v-2.2c0-0.6-0.4-1-1-1H436c-0.6,0-1.4-0.2-2-0.4L344.6,131v-5.8v-1.8c1.8-0.4,4.4-1,6.4-0.4
		c10.2,3.4,12.4,2.2,12.4,2c-1.8-2.4-1.2-7.8-1.2-7.8c0.6-4.8,0.4-5.8,0.4-6c-0.4,0.2-3.2,1.8-10-0.4c-3.6-1.2-6.4-1.4-8-1.6
		c0-1-0.8-1.6-1.8-1.6c-0.8,0.2-1.4,0.8-1.4,1.8v21.4L252,167c-0.6,0.4-1.4,0.4-2,0.4H98.4c-0.6,0-1,0.4-1,1v2.2
		C97.4,171.4,97.8,171.8,98.4,171.8z"/>
	<polygon class="st3" points="397.2,193 343,253.8 288.8,193 288.8,193 288,193.4 342.4,254.6 342.4,254.4 343.4,254.4 343.6,254.6 
		397.8,193.6 397.8,193.4 	"/>
	<path class="st3" d="M344.6,251.4h-3.4c-0.8,0-1.2,0.6-1.2,1.2v9.6c0,0.8,0.6,1.2,1.2,1.2h3.4c0.8,0,1.2-0.6,1.2-1.2v-9.6
		C345.8,251.8,345.4,251.4,344.6,251.4z"/>
</g>
</svg>
