<?xml version="1.0" encoding="UTF-8" standalone="no"?>
<svg
   xmlns:dc="http://purl.org/dc/elements/1.1/"
   xmlns:cc="http://creativecommons.org/ns#"
   xmlns:rdf="http://www.w3.org/1999/02/22-rdf-syntax-ns#"
   xmlns:svg="http://www.w3.org/2000/svg"
   xmlns="http://www.w3.org/2000/svg"
   xmlns:sodipodi="http://sodipodi.sourceforge.net/DTD/sodipodi-0.dtd"
   xmlns:inkscape="http://www.inkscape.org/namespaces/inkscape"
   version="1.1"
   id="Layer_1"
   x="0px"
   y="0px"
   width="626"
   height="360"
   viewBox="0 0 626 360"
   enable-background="new 0 0 792 936"
   xml:space="preserve">
<path
   inkscape:connector-curvature="0"
   d="m 42.761529,239.32855 v 1.06904 c -3.762039,0.0571 -5.100378,1.58316 -5.100378,5.17383 v 15.18688 c 0,6.96916 -4.439369,14.45243 -16.614992,14.45243 -10.723035,0 -16.2232822,-6.13677 -16.2232822,-14.16681 v -16.41913 c 0,-3.59883 -1.011915,-4.17007 -4.822917509801,-4.2272 v -1.06904 H 14.419748 v 1.06904 h -0.505957 c -3.084709,0 -4.4312088,0.84871 -4.4312088,4.10479 v 15.63572 c 0,7.58936 4.4312088,12.14298 12.7876678,12.14298 6.34079,0 12.795829,-2.64404 12.795829,-12.20011 V 246.9832 c 0,-5.39416 -0.840543,-6.34895 -5.500248,-6.58561 v -1.06904"
   id="path169"
   clip-path="none" /><path
   inkscape:connector-curvature="0"
   d="M 97.258048,274.70478 68.181813,244.22492 v 24.12274 c 0,4.04766 0.905827,4.89637 5.671621,4.89637 v 1.0772 H 60.837269 v -1.0772 h 0.220336 c 3.484578,0 4.594421,-1.18329 4.594421,-3.76204 v -27.67261 c -1.289376,-0.89767 -2.750124,-1.35466 -4.71683,-1.41179 v -1.06904 h 8.813453 l 26.44036,27.61549 V 244.5595 c 0,-3.42745 -1.011915,-4.04766 -5.508408,-4.16191 v -1.06904 h 13.130409 v 1.06904 c -4.210868,0 -5.108534,0.73446 -5.108534,2.9215 v 31.38569"
   id="path171"
   clip-path="none" /><path
   inkscape:connector-curvature="0"
   d="m 136.65745,274.30491 h -13.63637 v -1.06904 c 3.47642,-0.17138 4.21087,-1.06904 4.21087,-4.8474 v -23.95138 c 0,-3.03574 -1.06904,-3.88445 -4.21087,-4.04766 v -1.0772 h 13.63637 v 1.0772 c -3.5417,0 -4.77395,0.78342 -4.77395,4.55362 v 23.84529 c 0,3.3132 0.89766,4.44753 4.77395,4.44753"
   id="path173"
   clip-path="none" /><path
   inkscape:connector-curvature="0"
   d="M 170.5566,275.21073 158.38098,244.788 c -1.41179,-3.5417 -2.08096,-4.39041 -5.50841,-4.39041 v -1.06904 h 15.43987 v 1.06904 c -5.16567,0.11425 -6.39792,1.29754 -5.32888,3.89261 l 10.10283,25.19179 8.86242,-23.23324 c 0.6202,-1.56684 0.95479,-2.70116 0.95479,-3.48458 0,-1.68925 -1.40363,-2.36658 -5.22279,-2.36658 v -1.06904 h 13.02433 v 1.06904 c -2.91334,0 -4.43937,1.35466 -5.77771,4.83924 l -11.56358,29.9739"
   id="path175"
   clip-path="none" /><path
   inkscape:connector-curvature="0"
   d="m 230.77371,261.65597 h -1.06088 c -0.457,-3.99054 -1.5342,-4.43937 -3.83549,-4.43937 h -9.48262 v 11.97161 c 0,2.57875 0.95479,3.09287 3.02758,3.09287 h 8.65841 c 3.91709,0 5.10853,-1.51788 6.51216,-6.34895 h 1.01191 l -0.90582,8.38094 h -29.79437 v -1.0772 h 1.56683 c 4.4965,0 5.27175,-1.24042 5.27175,-4.61075 v -23.73103 c 0,-3.14184 -0.71813,-4.4965 -4.49649,-4.4965 h -1.22409 v -1.06904 h 26.93816 l 0.45699,7.82602 h -1.02007 c -0.7263,-4.78211 -2.12992,-5.79403 -4.15375,-5.79403 h -11.84104 v 13.83223 h 10.0457 c 2.02383,0 2.97863,-0.95479 3.26425,-4.22719 h 1.06088"
   id="path177"
   clip-path="none" /><path
   inkscape:connector-curvature="0"
   d="m 264.95848,269.01683 c 0,3.37033 1.3465,4.2272 4.48017,4.2272 h 1.29754 v 1.06904 h -15.8887 v -1.06904 h 0.96295 c 3.30505,0 4.48833,-0.90583 4.48833,-4.66787 v -23.67391 c 0,-3.48458 -0.94663,-4.4965 -4.21087,-4.4965 h -1.24041 v -1.0772 c 1.35466,0 4.78211,-0.21217 7.07524,-0.32642 2.30129,-0.11425 3.4193,-0.17137 7.07525,-0.17137 10.38029,0 15.03999,4.27615 15.03999,10.01306 0,4.21903 -2.86437,7.76073 -7.46695,9.11539 2.08095,1.6158 3.76204,3.19896 6.39791,5.843 l 4.43937,4.43937 c 3.30505,3.32952 6.7325,5.40232 11.05762,5.68794 v 1.01191 c -9.82537,0.44884 -12.36331,-1.68924 -17.34944,-6.69985 l -3.69676,-3.70492 c -2.47266,-2.47266 -4.43937,-4.10478 -5.78587,-5.01061 -1.40362,0.0571 -2.29313,0.12241 -3.81916,0.12241 -1.23225,0 -1.9667,-0.0653 -2.86437,-0.12241 m 0.008,-1.0772 c 1.3465,0.17137 2.1952,0.12241 3.47642,0.12241 6.2347,0 10.33948,-2.6522 10.33948,-9.39286 0,-5.23094 -2.35841,-9.2786 -11.01681,-9.2786 -1.06088,0 -1.79534,0 -2.79909,0.10608 v 18.44297 z"
   id="path179"
   clip-path="none" /><path
   inkscape:connector-curvature="0"
   d="m 311.31888,265.76075 c 1.18328,5.00245 5.10853,7.93211 9.48262,7.93211 3.75388,0 7.74441,-2.1952 7.74441,-6.63457 0,-8.09532 -18.01861,-10.58431 -18.01861,-20.426 0,-4.6597 4.26799,-8.15244 9.99674,-8.15244 4.70867,0 5.66346,1.41178 7.63016,1.41178 0.457,0 0.67733,-0.1224 1.02008,-0.56308 h 0.88951 l 0.94663,7.14869 h -0.94663 c -1.56684,-4.04766 -5.15751,-6.64273 -9.03379,-6.64273 -3.70492,0 -6.28367,2.14624 -6.28367,5.28807 0,7.98923 18.01045,10.12731 18.01045,20.4668 0,5.51657 -4.8882,9.62135 -11.44116,9.62135 -3.09287,0 -7.01812,-1.51787 -7.8097,-1.51787 -0.50596,0 -0.88951,0.27746 -1.11801,0.61205 h -0.95479 l -1.18328,-8.54416"
   id="path181"
   clip-path="none" /><path
   inkscape:connector-curvature="0"
   d="m 367.17006,274.30491 h -13.64454 v -1.06904 c 3.47642,-0.17138 4.21088,-1.06904 4.21088,-4.8474 v -23.95138 c 0,-3.03574 -1.06088,-3.88445 -4.21088,-4.04766 v -1.0772 h 13.64454 v 1.0772 c -3.54987,0 -4.77396,0.78342 -4.77396,4.55362 v 23.84529 c 0,3.3132 0.88951,4.44753 4.77396,4.44753"
   id="path183"
   clip-path="none" /><path
   inkscape:connector-curvature="0"
   d="m 406.73267,269.13108 c 0,3.03575 1.00375,4.10479 4.43121,4.10479 h 2.07279 v 1.06904 H 395.5608 v -1.06904 h 2.07279 c 3.42746,0 4.43937,-1.06904 4.43937,-4.10479 v -27.7787 h -9.75192 c -2.24417,0 -3.26424,1.29754 -4.10478,6.24287 h -1.01192 l 0.89767,-9.10724 h 1.06088 c 0.0653,0.33459 0.27746,0.56308 0.6202,0.66917 0.33459,0.12241 0.7263,0.17137 1.12617,0.17137 h 26.99528 c 0.79157,0 1.62396,-0.17137 1.73821,-0.8487 h 1.06903 l 0.89767,9.10724 h -1.00375 c -0.84871,-4.93717 -1.86062,-6.24287 -4.09663,-6.24287 h -9.76824"
   id="path185"
   clip-path="none" /><path
   inkscape:connector-curvature="0"
   d="m 465.60327,244.44525 c 1.8035,-3.09287 0.73446,-4.04766 -2.85621,-4.04766 v -1.06904 h 12.68158 v 1.06904 c -3.81916,0.27746 -5.44312,1.8035 -7.00996,4.43937 l -9.32757,15.80709 v 8.42991 c 0,2.97862 1.06904,4.17007 4.48833,4.17007 h 0.73446 v 1.06904 h -15.43987 v -1.06904 h 1.0772 c 3.47642,0 4.48833,-1.29754 4.48833,-4.04766 v -7.94027 l -9.98858,-15.62756 c -2.75012,-4.32512 -4.04766,-5.1167 -7.69545,-5.23095 v -1.06904 h 14.93391 v 1.06904 c -4.38224,0 -4.65154,1.06904 -2.97046,3.65595 l 8.98483,13.88935"
   id="path187"
   clip-path="none" /><path
   inkscape:connector-curvature="0"
   d="m 555.8514,275.21073 c -11.00865,0 -20.26278,-7.0834 -20.26278,-17.59426 0,-11.18819 8.59312,-19.12846 20.5484,-19.12846 10.60879,0 19.69154,7.26294 19.69154,17.38209 0,11.35956 -9.09091,19.34063 -19.97716,19.34063 m -1.17513,-35.3191 c -9.88249,0 -13.80774,9.22149 -13.80774,15.97031 0,10.51902 7.13237,17.92885 16.158,17.92885 9.14804,0 13.53028,-8.08716 13.53028,-16.07639 0,-10.45374 -6.62641,-17.82277 -15.88054,-17.82277"
   id="path189"
   clip-path="none" /><path
   inkscape:connector-curvature="0"
   d="m 615.51358,260.86439 h -0.94663 c -0.11424,-3.24792 -1.28937,-4.268 -3.98237,-4.268 h -10.38029 v 12.31436 c 0,3.14999 0.66917,4.33328 4.88004,4.33328 v 1.06904 h -13.63637 v -1.06904 c 3.48458,-0.2285 4.09662,-0.95479 4.09662,-5.52473 v -22.02548 c 0,-3.59882 -0.27746,-5.2391 -4.21087,-5.28807 v -1.06904 h 25.14283 v 6.63458 h -0.9548 c -0.0571,-3.24793 -1.17512,-4.60259 -4.64338,-4.60259 h -10.67407 v 13.22018 h 11.10658 c 2.08096,0 3.09287,-1.19144 3.25608,-3.59882 h 0.94663"
   id="path191"
   clip-path="none" /><path
   inkscape:connector-curvature="0"
   d="M 46.68678,358.65292 18.067539,298.71327 h -0.228497 l -3.027585,50.59576 c -0.326424,5.7369 3.933412,6.97731 8.984826,7.21397 v 2.12992 H 0.45695316 V 356.523 c 8.19324734,0 9.19700174,-1.81981 9.76008384,-12.04505 l 2.70116,-43.74901 c 0.440673,-7.41799 0.212176,-9.44182 -6.7406598,-9.89881 V 288.8063 H 23.127114 l 27.052405,56.6754 26.938157,-56.6754 h 16.492582 v 2.02383 c -5.508408,0.45699 -7.630165,0.56308 -7.409829,4.39041 l 3.598827,50.93849 c 0.661009,10.36397 1.566836,10.36397 9.760083,10.36397 v 2.12992 H 70.711601 V 356.523 c 5.271751,0 10.437413,-1.47707 9.98858,-7.43431 l -3.23976,-50.37542 h -0.228497 l -27.950072,59.93965"
   id="path193"
   clip-path="none" /><path
   inkscape:connector-curvature="0"
   d="m 123.91058,327.61814 -6.504,17.65139 c -0.78342,2.13807 -2.24416,5.51656 -2.24416,7.0834 0,3.03575 2.91333,4.17007 9.09091,4.17007 h 1.80349 v 2.12992 h -25.9344 V 356.523 c 7.30374,-0.12241 8.53599,-1.35466 12.1185,-11.13923 l 20.43415,-55.90014 -1.01191,-2.47266 h 9.76824 l 23.46174,62.4123 c 2.23601,5.95725 4.59442,7.09157 10.20892,7.09157 v 2.12992 h -30.86341 v -2.12992 h 2.91334 c 6.39791,0 8.74817,-0.67733 8.74817,-3.83548 0,-1.79534 -0.79158,-3.48458 -1.2241,-4.59443 l -7.52407,-20.47495 m -11.78392,-31.14903 -9.5479,26.2037 h 19.42224 l -9.87434,-26.2037 z"
   id="path195"
   clip-path="none" /><path
   inkscape:connector-curvature="0"
   d="m 195.75655,348.08493 c 0,6.74882 2.693,8.43807 8.98483,8.43807 h 2.57059 v 2.12992 H 175.54273 V 356.523 h 1.90958 c 6.61825,0 8.97667,-1.81165 8.97667,-9.34389 v -47.34783 c 0,-6.97732 -1.90142,-9.00931 -8.41359,-9.00931 h -2.47266 v -2.13808 c 2.693,0 9.53975,-0.44883 14.14233,-0.67733 4.59442,-0.20401 6.84675,-0.32642 14.13417,-0.32642 20.7769,0 30.09631,8.53599 30.09631,20.01796 0,8.42991 -5.72875,15.51331 -14.93391,18.21447 4.15375,3.24792 7.52408,6.41424 12.80399,11.69415 l 8.86242,8.8869 c 6.61825,6.63457 13.465,10.78832 22.11524,11.35956 v 2.03199 c -19.65074,0.88951 -24.69399,-3.37033 -34.69073,-13.39155 l -7.40167,-7.42615 c -4.94533,-4.93717 -8.87058,-8.20957 -11.57174,-10.01307 -2.79909,0.11425 -4.59442,0.2285 -7.63017,0.2285 -2.48082,0 -3.92525,-0.12241 -5.72058,-0.2285 m 0.008,-2.11359 c 2.693,0.33458 4.38224,0.22033 6.961,0.22033 12.46124,0 20.65449,-5.27991 20.65449,-18.78571 0,-10.46189 -4.71683,-18.55721 -22.00915,-18.55721 -2.12992,0 -3.57435,0 -5.60634,0.22849 v 36.8941 z"
   id="path197"
   clip-path="none" /><path
   inkscape:connector-curvature="0"
   d="m 304.63534,298.93361 c 3.58251,-6.18574 1.46075,-8.09532 -5.72874,-8.09532 v -2.14624 h 25.37132 v 2.14624 c -7.63833,0.56308 -10.89441,3.59883 -14.0444,8.89506 l -18.62251,31.59786 v 16.85981 c 0,5.95724 2.13808,8.33198 8.98483,8.33198 h 1.45259 v 2.13808 h -30.86341 v -2.14624 h 2.13808 c 6.95283,0 8.97666,-2.58691 8.97666,-8.09532 V 332.56346 L 262.3226,301.29203 c -5.50024,-8.65841 -8.07083,-10.2334 -15.38274,-10.45374 v -2.14624 h 29.85966 v 2.14624 c -8.75633,0 -9.31941,2.13808 -5.94908,7.3119 l 17.95333,27.7787"
   id="path199"
   clip-path="none" /><path
   inkscape:connector-curvature="0"
   d="m 376.80773,358.65292 h -50.1714 V 356.523 h 3.69676 c 5.17382,0 7.07524,-1.68925 7.07524,-7.43431 v -49.81233 c 0,-5.95724 -1.79533,-8.43807 -8.87058,-8.43807 h -1.55867 v -2.13808 h 33.10757 v 2.13808 h -4.14559 c -7.3119,0 -9.21332,0.79974 -9.21332,7.76074 v 51.85248 c 0,3.03575 1.23225,4.16191 4.49649,4.16191 h 16.49259 c 6.63457,0 8.6584,-2.58691 15.73364,-12.37148 h 2.01567"
   id="path201"
   clip-path="none" /><path
   inkscape:connector-curvature="0"
   d="m 408.34847,327.61814 -6.51216,17.65139 c -0.79158,2.13807 -2.24417,5.51656 -2.24417,7.0834 0,3.03575 2.9215,4.17007 9.09907,4.17007 h 1.79534 v 2.12992 H 384.55214 V 356.523 c 7.29558,-0.12241 8.52784,-1.35466 12.1185,-11.13923 l 20.43416,-55.90014 -1.01192,-2.47266 h 9.76009 l 23.46173,62.4123 c 2.24417,5.95725 4.60259,7.09157 10.20892,7.09157 v 2.12992 h -30.85525 v -2.12992 h 2.91334 c 6.39791,0 8.74817,-0.67733 8.74817,-3.83548 0,-1.79534 -0.78342,-3.48458 -1.23225,-4.59443 l -7.51592,-20.47495 m -11.78391,-31.14903 -9.53975,26.2037 h 19.42224 l -9.88249,-26.2037 z"
   id="path203"
   clip-path="none" /><path
   inkscape:connector-curvature="0"
   d="m 534.07891,359.4445 -58.15247,-60.95156 v 48.24549 c 0,8.09532 1.80349,9.78457 11.34324,9.78457 v 2.12992 H 461.22103 V 356.523 h 0.45699 c 6.961,0 9.21332,-2.36658 9.21332,-7.5404 v -55.3289 c -2.58691,-1.80349 -5.5084,-2.70116 -9.44182,-2.81541 v -2.14624 h 17.63507 l 52.87256,55.23098 v -44.76092 c 0,-6.86307 -2.02383,-8.09532 -11.00866,-8.32382 v -2.14624 h 26.26899 v 2.14624 c -8.41358,0 -10.21708,1.46075 -10.21708,5.85115 v 62.7469"
   id="path205"
   clip-path="none" /><path
   inkscape:connector-curvature="0"
   d="m 559.31966,299.95369 c 0,-7.31191 -1.90958,-9.1154 -8.53599,-9.1154 h -2.23601 v -2.13808 c 4.15375,-0.22849 9.66216,-0.45699 15.82341,-0.67733 6.17758,-0.21217 13.02433,-0.33458 18.85916,-0.33458 29.63932,0 42.76973,15.0808 42.76973,33.62169 0,16.98222 -13.13041,37.34293 -41.53748,37.34293 h -35.91482 v -2.13808 h 1.90958 c 6.06333,0 8.86242,-1.68925 8.86242,-8.21773 m 9.31941,2.03199 c 0,4.61074 0.34274,6.1939 9.20516,6.1939 15.04816,0 21.32366,-2.14624 28.29282,-9.10724 4.15375,-4.04766 9.31125,-12.71422 9.31125,-24.30228 0,-8.32381 -2.34209,-17.53714 -8.96851,-24.17987 -5.18198,-5.17382 -13.13857,-9.10723 -28.84773,-9.10723 -4.60259,0 -7.64649,0.33458 -8.99299,0.45699 v 60.04573 z"
   id="path207"
   clip-path="none" /><path
   style="fill:#ffffff"
   inkscape:connector-curvature="0"
   d="m 309.93973,204.33588 c 56.42243,0 102.60329,-45.8218 102.60329,-102.34215 0,-56.520346 -48.04964,-101.94227318 -102.60329,-101.89330955 -56.39794,0.0571242 -102.8889,45.38112355 -102.8889,101.89330955 0,56.51219 46.4828,102.34215 102.8889,102.34215"
   id="path271"
   clip-path="none" /><path
   style="fill:#ffffff"
   inkscape:connector-curvature="0"
   d="m 357.76904,37.174049 c -13.2365,2.03199 -30.92053,3.198957 -49.46959,3.182635 0.23666,-20.336227 0.57124,-35.0253158 0.95479,-39.45652427 18.78572,3.19079647 35.8985,16.76188227 48.5148,36.27388927"
   id="path273"
   clip-path="none" /><path
   style="fill:#e21836"
   inkscape:connector-curvature="0"
   d="m 379.81899,110.2441 c -19.12845,2.92966 -44.76091,4.61891 -71.6093,4.59443 -0.0408,-27.713419 0.11424,-54.4394 0.34274,-75.248942 18.54089,0.0082 36.23309,-1.166967 49.42878,-3.182636 12.90192,19.97716 21.17677,46.172702 21.83778,73.837148"
   id="path275"
   clip-path="none" /><path
   style="fill:#ffffff"
   inkscape:connector-curvature="0"
   d="m 378.12159,110.11354 c -5.3044,-0.84871 -9.78457,-9.71929 -7.43431,-18.875484 -7.46696,5.181984 -15.8887,-5.475766 -14.65645,-15.317455 0.66101,-5.222788 4.06398,-9.866172 9.99674,-7.711772 -2.41554,-8.323817 -5.44312,-16.198801 -8.97666,-23.453579 -5.27176,0.66917 -11.06578,1.215931 -17.21888,1.664764 5.45944,8.266693 0.11425,15.945822 -7.51592,14.721731 -5.50841,-0.897666 -10.67407,-6.683535 -9.2378,-13.587407 -4.48834,3.10919 -13.70166,1.868778 -14.52588,-7.989232 16.9251,-0.08161 31.81004,-0.652849 49.47775,-3.158154 14.26474,23.584148 20.37703,44.238639 21.84594,73.706588 -0.52228,0 -1.23225,0.0734 -1.75453,0"
   id="path277"
   clip-path="none" /><path
   style="fill:#ffffff"
   inkscape:connector-curvature="0"
   d="m 255.52482,179.14409 c -10.55166,-1.76269 -17.5453,-4.0395 -19.90372,-6.48768 -2.61139,-2.93782 -6.01436,-6.91203 -8.43806,-10.01306 -5.84299,-8.58496 -5.94908,-8.74817 -8.52783,-13.67717 -4.4965,-9.50711 -4.59442,-9.6948 -6.34895,-14.98288 -2.94598,-10.26604 -3.02759,-10.47005 -3.90893,-16.06007 -0.57941,-4.8474 -1.10169,-11.33508 -1.3057,-16.22328 l 0.0979,-4.439368 c -0.17954,4.357768 10.2742,8.478868 28.39074,11.506458 -0.0408,1.44442 -0.0653,2.89701 -0.0571,4.34144 0.0326,26.72598 7.61384,49.84497 20.00164,66.03561"
   id="path279"
   clip-path="none" /><path
   style="fill:#ffffff"
   inkscape:connector-curvature="0"
   d="m 309.59699,204.32772 c -0.48964,0 -1.10168,0 -1.575,-0.0163 -0.94663,-0.0163 -1.87694,-0.0571 -2.84805,-0.0816 -6.1531,-0.34274 -10.16811,-0.93031 -15.47251,-1.90142 -13.30994,-3.05207 -25.09386,-11.28612 -34.25822,-23.35565 9.03379,1.52603 20.64633,2.66852 34.1603,3.24792 6.38159,0.2693 12.7795,0.41619 19.13661,0.41619 0.2285,13.70982 0.52228,21.67457 0.85687,21.69089"
   id="path281"
   clip-path="none" /><path
   style="fill:#e21836"
   inkscape:connector-curvature="0"
   d="m 308.7238,182.63683 c -6.33263,0 -12.75502,-0.14689 -19.12029,-0.41619 -13.48948,-0.58756 -25.10202,-1.72189 -34.12765,-3.24792 -12.27355,-16.158 -19.78131,-39.21171 -19.83843,-65.81528 0,-1.17513 0.0163,-2.33393 0.0326,-3.49274 12.30619,2.06463 28.11328,3.60699 46.49096,4.43121 8.68289,0.37539 17.43106,0.5386 26.05682,0.55492 0,1.17513 0.008,2.31761 0.008,3.49274 0.0571,26.61173 0.22849,49.15132 0.49779,64.49326"
   id="path283"
   clip-path="none" /><path
   style="fill:#e21836"
   inkscape:connector-curvature="0"
   d="m 308.56875,184.05678 c -0.87318,3.54986 -5.83483,6.92835 -12.84479,4.06398 3.2724,4.34144 0.43251,8.08716 -5.35336,7.03444 -4.46385,-0.8079 -9.80088,-4.43121 -10.22524,-8.05452 -5.54921,-0.42435 -10.61694,-0.95479 -15.13792,-1.55867 4.28432,4.96164 9.05827,9.04195 14.22394,12.06953 0.61204,-0.25298 1.57499,-0.17953 4.63522,0.88135 3.92525,1.37098 7.57304,3.37849 11.46565,4.76579 v 0.0163 c -3.06023,-0.47331 -3.45194,-0.53044 -5.62266,-0.94663 -7.36902,-2.1136 -21.087,-6.07149 -34.25822,-23.34749 15.86422,2.44818 31.30408,3.50906 53.29692,3.63963 -0.0571,0.43251 -0.0653,1.01191 -0.17954,1.43627"
   id="path285"
   clip-path="none" /><path
   style="fill:#ffffff"
   inkscape:connector-curvature="0"
   d="m 255.44321,178.97272 h -0.0163 c -14.10152,-20.25462 -19.66706,-39.6687 -19.82211,-69.20193 7.98924,2.64404 10.17628,14.33002 8.13613,20.89115 7.5812,-2.92966 17.12911,10.21708 13.7751,18.99789 -1.5342,4.06398 -5.52473,5.18198 -9.71928,2.75012 2.26865,7.67913 5.20646,14.68093 8.69104,20.90747 5.37784,0.74262 11.41669,1.37914 17.99414,1.87694 -5.27176,-6.53665 -1.02008,-11.89 6.03068,-11.53094 6.05517,0.31011 14.10153,5.36968 12.37964,12.28171 5.49209,-2.48082 14.75437,-0.44883 15.83157,6.71618 -6.64273,-0.049 -16.69659,-0.12241 -29.57403,-1.01191 -7.94027,-0.55492 -15.78261,-2.06464 -23.70656,-2.67668"
   id="path287"
   clip-path="none" /><path
   style="fill:#e21836"
   inkscape:connector-curvature="0"
   d="m 255.43505,178.97272 c -11.68598,-2.1136 -16.72924,-3.75388 -20.02612,-6.52032 -2.36658,-2.67668 -5.50025,-6.28367 -7.70361,-9.09092 0.40803,0.51412 0.66917,0.8487 1.77085,2.12992 -1.08536,-1.3465 -6.41424,-8.17693 -6.80595,-11.20451 2.89702,-0.47332 12.25723,14.15049 12.36332,14.3137 2.83173,1.06088 6.52848,2.04831 10.99234,2.94598 -4.20272,-6.31631 -7.71994,-13.44052 -10.41294,-21.19309 -6.37343,3.2316 -14.50139,-13.64453 -11.9308,-20.76874 0.53044,-1.44443 2.21152,-4.47201 6.5448,-1.19145 -3.26424,-7.4996 -2.40737,-18.63066 5.44313,-18.61434 0.16321,24.8572 3.59882,46.14006 19.76498,69.19377"
   id="path289"
   clip-path="none" /><path
   inkscape:connector-curvature="0"
   d="m 379.35384,127.87101 -0.13873,-0.18769 c 0.47331,-4.59442 0.67733,-9.30309 0.66917,-14.14233 0,-1.12616 -0.0163,-2.25233 -0.0326,-3.37849 0.0408,-0.0163 0.0734,-0.0245 0.13873,-0.0326 0.0245,1.12616 0.0326,2.26048 0.0326,3.39481 0.0163,4.89636 -0.19586,9.6948 -0.66917,14.34634"
   id="path291"
   clip-path="none" /><path
   inkscape:connector-curvature="0"
   d="m 325.42856,203.11995 -0.0408,0.008 c 28.1296,-4.37408 49.82865,-34.29086 53.83551,-75.44479 l 0.13873,0.18769 c -4.04766,41.0152 -25.77119,70.85037 -53.93344,75.24894"
   id="path293"
   clip-path="none" /><path
   inkscape:connector-curvature="0"
   d="m 359.393,191.45028 c -6.94468,3.57435 -8.39726,4.32512 -15.82341,7.11605 -2.20337,0.71813 -5.13302,1.64028 -7.32823,2.27681 14.3137,-3.87629 27.01161,-12.06953 37.08179,-23.48622 -2.13808,4.74947 -3.61515,7.45879 -11.09842,12.44492 -0.93031,0.56308 -1.8851,1.10984 -2.83173,1.64844"
   id="path295"
   clip-path="none" /><path
   style="fill:#ffd100"
   inkscape:connector-curvature="0"
   d="m 362.21657,189.81816 c 6.15309,-4.25167 8.76449,-6.79778 11.09026,-12.44492 14.72173,-16.70476 23.72288,-40.29707 23.64943,-67.23522 0,-1.14249 -0.008,-2.26049 -0.0571,-3.39481 4.66787,-1.21593 8.40542,-2.55427 11.04946,-4.00686 0.0326,1.14248 0.049,2.25233 0.049,3.38665 0.0571,36.14332 -18.20631,67.01489 -45.78099,83.69516"
   id="path297"
   clip-path="none" /><path
   inkscape:connector-curvature="0"
   d="m 331.49189,163.31252 c -6.82226,-6.84675 -6.82226,-6.84675 -23.19244,-22.36822 -0.0408,-7.19765 -0.0653,-14.80334 -0.0734,-22.80073 0,-1.14248 -0.008,-2.25233 -0.008,-3.38665 8.88689,0.008 17.61058,-0.17953 26.02416,-0.52228 0.0245,1.12616 0.0245,2.26865 0.0326,3.39481 0.0326,17.17808 -0.97928,32.69139 -2.78277,45.68307"
   id="path299"
   clip-path="none" /><path
   style="fill:#ffd100"
   inkscape:connector-curvature="0"
   d="m 313.95475,204.23795 -0.64469,0.0245 c -1.41178,0.0327 -2.04831,0.0653 -2.62771,0.0653 h -1.06904 c -0.60389,-0.0163 -1.10984,-25.355 -1.3057,-63.39158 15.31746,14.50956 16.91694,16.03559 23.19244,22.36822 -3.48458,24.96329 -9.90697,40.60717 -17.5453,40.93359"
   id="path301"
   clip-path="none" /><path
   inkscape:connector-curvature="0"
   d="m 318.81847,203.91969 c -0.83238,0.0653 -1.89326,0.15505 -2.71748,0.20401 -0.65285,0.0408 -1.49339,0.0816 -2.1544,0.11425 7.63833,-0.33458 14.06072,-15.94582 17.52898,-40.86831 7.39351,7.7689 10.65775,11.57174 14.22393,17.42289 -6.95283,13.75878 -16.30488,22.18053 -26.88103,23.12716"
   id="path303"
   clip-path="none" /><path
   style="fill:#ffd100"
   inkscape:connector-curvature="0"
   d="m 345.6995,180.79253 c -3.53354,-5.55737 -5.67162,-8.49519 -14.22393,-17.42289 1.81165,-13.01616 2.83173,-28.53763 2.79909,-45.74835 -0.008,-1.13432 -0.008,-2.26865 -0.0245,-3.39481 8.4299,-0.35091 16.52522,-0.87318 24.12274,-1.53419 0.0326,1.118 0.0326,2.24416 0.0326,3.37849 0.0408,26.41587 -4.78212,49.04523 -12.70607,64.72175"
   id="path305"
   clip-path="none" /><path
   inkscape:connector-curvature="0"
   d="m 347.76414,193.37619 c 1.28937,-4.06398 1.17512,-6.4632 -2.03199,-12.64078 7.91578,-15.67652 12.71422,-38.2814 12.68158,-64.67279 0,-1.13433 -0.008,-2.26049 -0.0408,-3.37849 2.83989,-0.25298 5.6145,-0.53044 8.3075,-0.83239 3.77836,4.44753 8.44623,9.97226 12.53469,15.81526 -2.84805,29.33737 -14.69725,52.96232 -31.45097,65.70919"
   id="path307"
   clip-path="none" /><path
   style="fill:#ffd100"
   inkscape:connector-curvature="0"
   d="m 325.3796,203.12811 c -0.75894,0.12241 -1.78717,0.2693 -2.55427,0.36723 -2.40738,0.27746 -2.40738,0.27746 -3.62331,0.40803 l -0.39171,0.0326 c 10.58431,-0.95479 19.94452,-9.39286 26.93,-23.19244 2.75828,5.52473 3.64779,8.0382 2.02383,12.64078 -6.74882,5.1167 -14.29738,8.49519 -22.38454,9.74376"
   id="path309"
   clip-path="none" /><path
   style="fill:#ffd100"
   inkscape:connector-curvature="0"
   d="m 336.24136,200.84314 -2.47266,0.62021 c -4.12111,0.92214 -4.12111,0.92214 -6.33263,1.31385 l -2.00751,0.33459 c 19.969,-3.12551 36.69824,-19.03869 46.18086,-42.6718 2.61956,7.00179 3.45194,10.2742 1.68925,16.94957 -10.06203,11.38405 -22.74361,19.59361 -37.05731,23.45358"
   id="path311"
   clip-path="none" /><path
   inkscape:connector-curvature="0"
   d="m 333.76054,201.46335 c -4.11295,0.92214 -4.11295,0.92214 -6.33263,1.31385 l -2.00751,0.33459 c 8.04636,-1.24857 15.57044,-4.59442 22.29477,-9.66216 -2.35025,3.49274 -3.94157,5.0351 -11.48197,7.38535"
   id="path313"
   clip-path="none" /><path
   inkscape:connector-curvature="0"
   d="m 373.29867,177.38956 c 1.41178,-5.87563 1.36282,-9.13988 -1.69741,-16.94957 5.42681,-13.45684 8.45439,-29.41082 8.41359,-46.93164 0,-1.12617 0,-2.26049 -0.0408,-3.38665 6.47136,-0.9956 12.20011,-2.12176 16.93326,-3.38666 0.0571,1.12617 0.0571,2.25233 0.0571,3.39482 0.0734,26.93815 -8.93586,50.54678 -23.66575,67.2597"
   id="path315"
   clip-path="none" /><path
   style="fill:#ffd41f"
   inkscape:connector-curvature="0"
   d="m 359.393,191.45028 c 0.91399,-0.51411 1.81981,-1.05271 2.7338,-1.58315 l -1.0364,0.61204"
   id="path317"
   clip-path="none" /><path
   inkscape:connector-curvature="0"
   d="m 408.4872,105.83738 c 0.0734,36.72272 -18.89996,68.0676 -47.33967,84.62547 l -0.0571,0.0163 1.04456,-0.61204 c 27.62365,-16.67212 45.92789,-47.56817 45.87076,-83.76045 0,-1.13433 -0.0163,-2.24417 -0.049,-3.37849 0.16321,-0.0979 0.31826,-0.17138 0.47331,-0.27746 0.0408,1.13432 0.0571,2.26048 0.0571,3.38665"
   id="path319"
   clip-path="none" /><path
   style="fill:#ffd100"
   inkscape:connector-curvature="0"
   d="m 371.48702,160.42366 c -3.61515,-7.36902 -6.05517,-11.30243 -14.33819,-21.48687 0.82422,-7.22213 1.27306,-14.86046 1.25674,-22.87417 0,-1.14249 -0.008,-2.26049 -0.0326,-3.37849 7.7689,-0.70182 14.99103,-1.55052 21.47055,-2.54611 0.0245,1.12616 0.0408,2.26048 0.0408,3.37849 0.0326,17.52082 -3.01127,33.46664 -8.39726,46.90715"
   id="path321"
   clip-path="none" /><path
   inkscape:connector-curvature="0"
   d="m 357.14067,139.02656 c -5.9246,-6.80595 -8.86241,-10.21708 -22.89049,-24.80008 7.92394,-0.39171 14.17497,-0.70997 24.12274,-1.59948 0.0326,1.15065 0.0408,2.30129 0.0408,3.44378 0.008,8.03819 -0.44884,15.70916 -1.27306,22.95578"
   id="path323"
   clip-path="none" /><path
   inkscape:connector-curvature="0"
   d="m 235.64559,109.74631 c -0.0408,-0.0163 -0.0898,-0.0245 -0.14689,-0.0245 0.13873,-6.01437 0.64468,-11.963451 1.50971,-17.798283 l 0.11425,0.228497 c -0.84055,5.769547 -1.33834,11.653346 -1.47707,17.594266"
   id="path325"
   clip-path="none" /><path
   inkscape:connector-curvature="0"
   d="m 237.12266,92.168365 -0.11425,-0.236658 C 243.29207,49.74138 267.84733,13.900003 298.62097,2.9158291 l -0.1224,0.057124 C 267.80653,14.055055 243.31655,49.961716 237.12266,92.168365"
   id="path327"
   clip-path="none" /><path
   inkscape:connector-curvature="0"
   d="m 298.49857,2.9647928 0.1224,-0.057124 c 3.55803,-1.2648937 7.1895,-2.21152389 10.89441,-2.79092684 -3.74572,0.59572416 -7.42615,1.55051494 -11.01681,2.84805114"
   id="path329"
   clip-path="none" /><path
   style="fill:#ffd100"
   inkscape:connector-curvature="0"
   d="m 248.13947,33.085585 c 3.56619,-8.021874 6.1939,-12.036892 13.7751,-18.532733 C 276.0569,6.0495014 292.27202,0.85935671 309.51538,0.10858106 285.76802,2.279302 264.17506,14.642618 248.13947,33.085585"
   id="path331"
   clip-path="none" /><path
   inkscape:connector-curvature="0"
   d="m 219.86298,106.29437 c -4.17007,-1.22409 -7.37719,-2.52162 -9.52343,-3.88445 1.12616,-37.032821 21.65009,-69.879256 51.56686,-87.865229 -7.06708,6.275505 -10.20891,10.029384 -13.7751,18.532734 -16.7782,19.324312 -27.50124,45.299518 -28.26833,73.216945"
   id="path333"
   clip-path="none" /><path
   style="fill:#ffd100"
   inkscape:connector-curvature="0"
   d="m 308.21785,114.74876 c -8.60944,-0.008 -17.36577,-0.1877 -26.04866,-0.57124 -0.26113,-0.008 -0.50595,-0.0245 -0.78341,-0.0327 0.13873,-18.26343 1.62396,-36.094352 4.10478,-52.032013 7.40167,9.319411 11.28612,13.824065 22.75177,25.828315 -0.0245,8.707365 -0.0245,17.692188 -0.0245,26.807588"
   id="path335"
   clip-path="none" /><path
   style="fill:#ffd100"
   inkscape:connector-curvature="0"
   d="M 285.4824,62.039412 C 278.52957,52.360934 275.55094,47.342162 272.68657,38.4063 282.22632,18.265927 295.20168,3.9685472 309.51538,0.12490227 299.32279,5.8862893 290.40325,30.245695 285.4824,62.039412"
   id="path337"
   clip-path="none" /><path
   inkscape:connector-curvature="0"
   d="m 281.39394,114.14487 c -8.93586,-0.40803 -17.24336,-0.98743 -24.83272,-1.71372 0.43251,-27.468599 6.53664,-53.713105 16.13351,-74.02485 2.94598,8.568635 5.3044,13.432356 12.79583,23.633112 -2.48082,15.962143 -3.96605,33.817546 -4.09662,52.105458"
   id="path339"
   clip-path="none" /><path
   style="fill:#ffd100"
   inkscape:connector-curvature="0"
   d="m 256.56938,112.43115 c -2.86437,-0.2693 -5.60634,-0.57125 -8.24221,-0.88135 -3.43562,-5.26359 -7.66281,-11.808394 -11.20451,-19.389596 4.38224,-29.875974 17.92884,-56.585634 36.34733,-73.567853 -2.45634,6.773302 -2.92966,10.804641 -0.79974,19.879234 -9.60503,20.303585 -15.68468,46.523608 -16.10087,73.959565"
   id="path341"
   clip-path="none" /><path
   inkscape:connector-curvature="0"
   d="M 272.67025,38.479745 C 270.81779,30.139607 270.6709,25.871611 273.47815,18.592351 284.14406,8.7669829 296.42577,2.1650535 309.51538,0.10858106 295.20168,3.9685472 282.18552,18.314891 272.67025,38.479745"
   id="path343"
   clip-path="none" /><path
   inkscape:connector-curvature="0"
   d="M 246.67872,57.510276 C 245.18533,47.570659 245.18533,42.380514 248.15579,33.069264 264.19954,14.626297 285.78434,2.2874626 309.52354,0.11674166 303.88456,1.0715324 302.84001,1.2510657 298.62914,2.9158291 276.71791,10.733689 257.94036,31.159683 246.67872,57.510276"
   id="path345"
   clip-path="none" /><path
   style="fill:#ffd100"
   inkscape:connector-curvature="0"
   d="m 273.53527,18.453621 c 3.45194,-5.973563 5.70427,-8.8542564 14.34635,-13.407874 6.93651,-2.5624299 14.18313,-4.25167513 21.63376,-4.92900534 C 296.46657,2.1568929 284.1767,8.6853768 273.53527,18.453621"
   id="path347"
   clip-path="none" /><path
   style="fill:#ffd100"
   inkscape:connector-curvature="0"
   d="m 235.49053,109.72999 c -6.11229,-1.02824 -11.37588,-2.19521 -15.62755,-3.42746 0.76709,-27.925587 11.48197,-53.917114 28.28465,-73.233266 -2.61139,8.658402 -3.2316,13.652692 -1.47707,24.441012 -6.71617,15.766289 -10.75567,33.654335 -11.18003,52.219714"
   id="path349"
   clip-path="none" /><path
   inkscape:connector-curvature="0"
   d="M 262.0125,14.487567 C 269.50394,9.0689252 273.72297,6.5064953 285.39263,2.9321504 293.12889,1.0878536 301.19973,0.10858106 309.50722,0.10858106 292.31283,0.85935671 276.12219,6.016859 262.0125,14.487567"
   id="path351"
   clip-path="none" /><path
   style="fill:#ffd100"
   inkscape:connector-curvature="0"
   d="m 210.33955,102.41808 c -2.1544,-1.3465 -3.25608,-2.750119 -3.22344,-4.178225 l 0.17953,-3.558024 c 2.93782,-44.736436 35.24566,-81.540764 78.08883,-91.7496806 -9.65399,3.0683874 -15.04815,5.3451962 -23.38013,11.5554166 -29.95758,17.969652 -50.53863,50.86505 -51.66479,87.930513"
   id="path353"
   clip-path="none" /><path
   inkscape:connector-curvature="0"
   d="m 256.56938,112.43115 c -7.7689,-0.75078 -14.78702,-1.65661 -20.91563,-2.68484 0.41619,-18.549057 4.44753,-36.428942 11.14738,-52.195231 2.58692,10.363968 4.66787,15.856055 11.97977,28.137766 -1.32202,8.666562 -2.07279,17.643225 -2.21152,26.742305"
   id="path355"
   clip-path="none" /><path
   style="fill:#ffd100"
   inkscape:connector-curvature="0"
   d="m 256.55306,112.48827 c 0.15505,-9.1562 0.90582,-18.189987 2.236,-26.881031 6.27551,9.352053 10.12731,14.868621 22.59672,28.537631 -8.55232,-0.43251 -14.73806,-0.75077 -24.83272,-1.6566"
   id="path357"
   clip-path="none" /><path
   inkscape:connector-curvature="0"
   d="m 287.88162,5.0539076 c 5.6961,-2.3094512 10.63327,-4.30879936 21.63376,-4.93716594 -7.44247,0.67733021 -14.70541,2.36657544 -21.63376,4.93716594"
   id="path359"
   clip-path="none" /><path
   style="fill:none;stroke:#000000;stroke-width:0;stroke-linecap:round;stroke-linejoin:round"
   inkscape:connector-curvature="0"
   d="m 412.2982,101.38169 c -0.0898,5.50841 -0.25298,13.84854 -3.21528,25.68958 -2.65219,10.71488 -7.28742,20.11589 -8.82977,22.84154 -5.31256,9.20516 -15.13792,26.35875 -39.09746,40.5582"
   id="path361"
   clip-path="none" /><path
   inkscape:connector-curvature="0"
   d="m 408.63409,102.36096 c 2.60323,-1.52603 3.81916,-3.060226 3.77836,-4.553617 1.41178,42.786047 -22.64568,75.983397 -51.08539,92.533097 l -0.12241,0.0653 1.08536,-0.63653 c 27.61549,-16.66396 45.92789,-47.57633 45.8626,-83.74413 0,-1.15064 -0.0245,-2.26865 -0.0653,-3.39481 0.18769,-0.0979 0.3509,-0.18769 0.52228,-0.29378 0.0326,1.13432 0.0408,2.26865 0.0408,3.39481"
   id="path363"
   clip-path="none" /><path
   style="fill:none;stroke:#000000;stroke-width:0;stroke-linecap:round;stroke-linejoin:round"
   inkscape:connector-curvature="0"
   d="m 408.63409,102.36912 c 2.61139,-1.53419 3.81916,-3.068386 3.77836,-4.561777 1.41994,42.786047 -22.64568,75.983397 -51.08539,92.541257 l -0.11425,0.0653 1.0772,-0.64469 c 27.60733,-16.66396 45.92789,-47.57633 45.87076,-83.74413 0,-1.15064 -0.0245,-2.26865 -0.0734,-3.39481 0.18769,-0.0979 0.3509,-0.17953 0.52228,-0.28562 0.0326,1.12616 0.0408,2.25233 0.0408,3.39481"
   id="path365"
   clip-path="none" /><path
   style="fill:#e21836"
   inkscape:connector-curvature="0"
   d="m 358.12811,36.366149 c 0.0245,-0.0082 0.049,-0.0082 0.0816,-0.01632 0,0 0.0163,0 0.0571,0 0.99559,-0.171372 1.90142,-0.326424 2.82356,-0.497796 5.843,-1.085361 18.59802,-3.876288 18.59802,-7.744415 0,0 5.6553,5.206466 9.45814,12.281711 0.457,0.783418 0.84871,1.583157 1.14249,2.391057 0.33458,0.816061 0.5794,1.566836 0.70181,2.244166 0.0245,0.0408 0.0326,0.08161 0.0734,0.12241 0.0245,0.326424 0.0245,0.620205 0,0.881345 0,0.122409 0,0.220336 -0.0163,0.334585 -0.21218,2.203363 -1.55868,2.236005 -3.01127,1.583157 -0.17137,-0.05712 -0.32642,-0.106088 -0.48147,-0.179533 -5.27175,-2.374736 -6.97732,-7.205814 -7.9974,-9.180681 -2.66851,0.840542 -7.0834,2.758285 -10.72303,3.476418 -0.45699,0.09793 -1.21593,0.2693 -1.64028,0.359066 4.30064,7.124209 8.4299,15.635719 11.36772,23.87793 5.14934,-5.279911 13.22018,4.537297 13.59557,14.02808 0.22849,5.581854 -2.26049,10.543502 -7.34455,8.756329 4.07215,7.55672 2.76645,18.622504 -4.96164,21.046204 -1.28938,-24.832724 -5.47577,-46.866358 -21.80514,-73.722908"
   id="path367"
   clip-path="none" /><path
   style="fill:#e21836;fill-rule:evenodd"
   inkscape:connector-curvature="0"
   clip-rule="evenodd"
   d="m 359.05025,17.327457 c -0.0326,-0.01632 -0.0408,-0.03264 -0.0816,-0.04896 h 0.0816 c -0.0408,-0.07345 -0.049,-0.155052 -0.0816,-0.220337 0.0816,-0.08977 0.17137,-0.212175 0.25298,-0.326424 0.13057,-0.01632 0.22033,-0.02448 0.31826,-0.03264 v -0.03264 c 0,0 0.75078,-3.117351 12.4694,5.002451 C 352.07294,6.0739832 331.8428,1.6346142 319.83855,0.45132646 c 1.27305,0.38354843 2.22784,0.75893624 2.94598,1.11800284 0.62836,0.3019424 1.0772,0.5957242 1.39546,0.8731848 0.0163,-0.00816 0.049,-0.00816 0.049,-0.00816 1.44443,0.1713727 2.78277,0.4243514 3.94157,0.701812 0.43252,0.1550515 0.86503,0.3019424 1.3057,0.4733151 0.049,0.016321 0.10609,0.032642 0.15505,0.057124 0.36723,0.1468909 0.75078,0.2856212 1.11801,0.4406727 0.11424,0.040803 0.19585,0.081606 0.29378,0.1305696 0.35906,0.1387303 0.69365,0.2856212 1.03639,0.4406727 0.10609,0.048964 0.2285,0.089767 0.33459,0.1387303 0.44883,0.2040151 0.88951,0.4080302 1.3465,0.620206 v 0.016321 c 3.59067,1.75453 6.51216,3.7620388 6.52848,5.2717507 -0.5386,0.334585 -0.68549,0.424351 -2.27681,0 6.03885,4.31696 14.70541,12.444923 19.82211,18.434807 3.52538,-0.661009 8.75633,-1.419946 11.17187,-2.227846 -0.16321,0.163212 -8.89506,-6.430556 -9.95594,-9.605032"
   id="path369"
   clip-path="none" /><path
   style="fill:#ffffff;fill-rule:evenodd"
   inkscape:connector-curvature="0"
   clip-rule="evenodd"
   d="m 379.60682,28.189223 c -2.51347,-2.374737 -5.04326,-4.537297 -7.58937,-6.520324 -4.75763,-3.288724 -7.71993,-4.733151 -9.53974,-5.288072 l 0.0245,-0.03264 c 0,0 -5.82667,-1.876939 -2.53795,2.619554 l 0.008,-0.02448 c 2.54611,3.37033 8.8869,8.127963 9.02563,7.972911 -2.41554,0.816061 -7.65465,1.566836 -11.16371,2.236006 -5.1167,-5.989884 -13.78326,-14.117847 -19.82211,-18.442967 1.58316,0.424351 1.73821,0.334585 2.26865,0 -0.008,-1.5097121 -2.92149,-3.5172209 -6.52032,-5.2717509 v -0.016321 c -0.45699,-0.2121757 -0.89767,-0.4161908 -1.35466,-0.6202059 -0.10609,-0.048964 -0.22034,-0.089767 -0.32643,-0.1387303 -0.3509,-0.1550515 -0.68549,-0.2937818 -1.03639,-0.4406727 -0.0979,-0.048964 -0.1877,-0.089767 -0.29378,-0.1305697 -0.36723,-0.1468908 -0.75078,-0.2937817 -1.11801,-0.4406726 -0.0571,-0.024482 -0.11425,-0.040803 -0.16321,-0.057124 -0.43251,-0.1713727 -0.87318,-0.3182635 -1.29754,-0.473315 -1.17512,-0.2774606 -2.5053,-0.5304394 -3.95789,-0.7018121 0,0 -0.0163,0 -0.0408,0.00816 0.0816,0.081606 0.14689,0.1550515 0.21217,0.2121758 l -0.38354,-0.1958545 c 0.0653,-0.00816 0.14689,-0.016321 0.17137,-0.016321 -0.3101,-0.2611393 -0.75894,-0.5712423 -1.3873,-0.8731847 -0.71814,-0.350906 -1.67293,-0.73445442 -2.94598,-1.11800285 -2.90518,-0.27746056 -5.33704,-0.38354843 -7.14869,-0.39986964 -1.37098,-0.04080302 -2.48083,-0.05712423 -2.70116,0.03264242 -0.0245,0 -0.0245,0.01632121 -0.0245,0.01632121 -0.42436,0.01632121 -0.66917,0.04896363 -0.66917,0.04896363 l 0.45699,0.14689089 c -0.24482,-0.0489636 -0.51412,-0.0897667 -0.77526,-0.13056968 0.63653,0.10608787 1.27306,0.22033633 1.90142,0.35906662 1.58316,0.5222787 4.90453,1.4117846 7.40983,2.0727936 15.33378,5.3941599 29.14968,17.5126577 39.82375,33.7685827 0.16322,-0.01632 0.31827,-0.04896 0.48964,-0.07344 9.49078,-1.599479 14.76253,-3.37033 18.52457,-5.100378 l 0.0245,-0.0082 c 2.70932,-1.517872 2.41553,-2.97862 2.41553,-2.97862"
   id="path371"
   clip-path="none" /><path
   style="fill:#e21836;fill-rule:evenodd"
   inkscape:connector-curvature="0"
   clip-rule="evenodd"
   d="M 358.02202,36.406952 C 341.37438,11.819049 326.05693,4.4826653 312.12678,0.87567792 c 0.3509,0.0979273 0.71813,0.20401508 1.0772,0.33458478 -0.64469,-0.1795333 -1.3057,-0.35090599 -1.8851,-0.51411809 -0.17138,-0.0489636 -0.31011,-0.0979273 -0.44884,-0.15505149 0.40803,0.10608786 0.83238,0.20401512 1.25674,0.32642419 -0.4978,-0.14689089 -0.97928,-0.26929996 -1.47707,-0.39170903 -0.17954,-0.0652848 -0.31011,-0.11424847 -0.40803,-0.14689089 0.0326,0.0244818 0.0816,0.0489636 0.13873,0.0734454 -0.31827,-0.0734454 -0.65285,-0.13873028 -0.98744,-0.20401512 2.99494,3.28872379 7.16501,4.70050839 8.17693,4.99429019 -0.29378,1.2322513 -0.0898,3.7049146 4.22719,6.8141051 0.65285,0.505958 1.32202,0.873185 1.92591,1.191448 6.65089,3.468257 8.12796,0.767097 8.4299,-0.318263 0.0163,-0.03264 0.0571,-0.04896 0.10609,-0.08977 2.02383,1.509712 5.97356,4.676027 10.34764,9.621353 2.49715,3.019424 4.87189,5.647139 6.65906,8.299335 -4.10479,0.514119 -9.55607,0.995594 -14.92575,1.387303 -0.3101,-6.520323 -4.98613,-9.784565 -7.97291,-10.869925 -6.4632,-2.4237 -8.60128,5.214626 -5.79403,10.576143 -5.13302,-2.766445 -11.18003,-0.301942 -12.02873,7.801539 20.22198,-0.106088 34.10317,-1.003755 49.47775,-3.198957"
   id="path373"
   clip-path="none" /><path
   inkscape:connector-curvature="0"
   d="M 308.24233,87.941172 C 298.20478,77.389509 292.80246,71.45675 285.4824,62.112857 290.41141,30.278337 299.31463,5.8781287 309.51538,0.10858106 308.85437,7.608177 308.36474,44.232972 308.24233,87.941172"
   id="path375"
   clip-path="none" />
</svg>